{
  "asset": {
    "version": "2.0",
    "generator": "Sketchup glTF Exporter v1.2.6 by Centaur"
  },
  "scene": 0,
  "scenes": [
    {
      "nodes": [
        0
      ]
    }
  ],
  "samplers": [
    {
    }
  ],
  "nodes": [
    {
      "name": "root",
      "children": [
        1,
        3,
        5,
        7
      ]
    },
    {
      "name": "Component",
      "children": [
        2
      ]
    },
    {
      "name": "Sphere01",
      "mesh": 0
    },
    {
      "name": "Component#1",
      "children": [
        4
      ]
    },
    {
      "mesh": 1
    },
    {
      "name": "Component#1",
      "children": [
        6
      ]
    },
    {
      "mesh": 2
    },
    {
      "name": "Component#1",
      "children": [
        8
      ]
    },
    {
      "mesh": 3
    }
  ],
  "materials": [
    {
      "pbrMetallicRoughness": {
        "baseColorTexture": {
          "index": 0
        },
        "metallicFactor": 0.1,
        "roughnessFactor": 0.9
      },
      "name": "Material #10"
    },
    {
      "pbrMetallicRoughness": {
        "baseColorFactor": [
          0.2176,
          0.2176,
          0.2176,
          1.0
        ],
        "metallicFactor": 0.1,
        "roughnessFactor": 0.9
      },
      "name": "default material",
      "doubleSided": true
    },
    {
      "pbrMetallicRoughness": {
        "baseColorTexture": {
          "index": 1
        },
        "roughnessFactor": 0.1
      },
      "name": "Metal_Rough",
      "doubleSided": true
    }
  ],
  "images": [
    {
      "bufferView": 0,
      "mimeType": "image/jpeg"
    },
    {
      "bufferView": 1,
      "mimeType": "image/jpeg"
    }
  ],
  "textures": [
    {
      "source": 0,
      "sampler": 0
    },
    {
      "source": 1,
      "sampler": 0
    }
  ],
  "meshes": [
    {
      "primitives": [
        {
          "attributes": {
            "POSITION": 2,
            "NORMAL": 3,
            "TEXCOORD_0": 4
          },
          "indices": 5,
          "mode": 4,
          "material": 0
        }
      ]
    },
    {
      "primitives": [
        {
          "attributes": {
            "POSITION": 0,
            "NORMAL": 1
          },
          "indices": 6,
          "mode": 4,
          "material": 1
        },
        {
          "attributes": {
            "POSITION": 2,
            "NORMAL": 3,
            "TEXCOORD_0": 4
          },
          "indices": 7,
          "mode": 4,
          "material": 2
        }
      ]
    },
    {
      "primitives": [
        {
          "attributes": {
            "POSITION": 0,
            "NORMAL": 1
          },
          "indices": 8,
          "mode": 4,
          "material": 1
        },
        {
          "attributes": {
            "POSITION": 2,
            "NORMAL": 3,
            "TEXCOORD_0": 4
          },
          "indices": 9,
          "mode": 4,
          "material": 2
        }
      ]
    },
    {
      "primitives": [
        {
          "attributes": {
            "POSITION": 0,
            "NORMAL": 1
          },
          "indices": 10,
          "mode": 4,
          "material": 1
        },
        {
          "attributes": {
            "POSITION": 2,
            "NORMAL": 3,
            "TEXCOORD_0": 4
          },
          "indices": 11,
          "mode": 4,
          "material": 2
        }
      ]
    }
  ],
  "accessors": [
    {
      "bufferView": 2,
      "componentType": 5126,
      "count": 2235,
      "type": "VEC3",
      "min": [
        -0.03732574471641947,
        2.717651961356055,
        -0.018813977779737968
      ],
      "max": [
        0.53286516488647,
        2.9033838797890446,
        0.492783527107961
      ]
    },
    {
      "bufferView": 3,
      "componentType": 5126,
      "count": 2235,
      "type": "VEC3",
      "min": [
        -0.998122770028909,
        -0.9987088933135727,
        -0.9985454338856746
      ],
      "max": [
        0.9981871890130272,
        0.9997050193101478,
        0.9989381681089349
      ]
    },
    {
      "bufferView": 4,
      "componentType": 5126,
      "count": 29454,
      "type": "VEC3",
      "min": [
        -1.4554068518720726,
        -0.13505398065721458,
        -1.3982652070336652
      ],
      "max": [
        1.3982976153801914,
        2.7654553591563453,
        1.4545647214827677
      ]
    },
    {
      "bufferView": 5,
      "componentType": 5126,
      "count": 29454,
      "type": "VEC3",
      "min": [
        -0.9998115075912859,
        -0.9995291460564135,
        -0.9994914894364162
      ],
      "max": [
        0.9998114916853853,
        0.9995291366664059,
        0.9994915079843882
      ]
    },
    {
      "bufferView": 6,
      "componentType": 5126,
      "count": 29454,
      "type": "VEC2",
      "min": [
        -6.083357710828249,
        -4.884981308350689e-15
      ],
      "max": [
        6.083357710828251,
        3.4942255669090256
      ]
    },
    {
      "bufferView": 8,
      "componentType": 5123,
      "count": 29400,
      "type": "SCALAR"
    },
    {
      "bufferView": 7,
      "componentType": 5123,
      "count": 3804,
      "type": "SCALAR"
    },
    {
      "bufferView": 8,
      "componentType": 5123,
      "count": 72,
      "type": "SCALAR",
      "byteOffset": 58800
    },
    {
      "bufferView": 7,
      "componentType": 5123,
      "count": 3804,
      "type": "SCALAR",
      "byteOffset": 7608
    },
    {
      "bufferView": 8,
      "componentType": 5123,
      "count": 72,
      "type": "SCALAR",
      "byteOffset": 58944
    },
    {
      "bufferView": 7,
      "componentType": 5123,
      "count": 3804,
      "type": "SCALAR",
      "byteOffset": 15216
    },
    {
      "bufferView": 8,
      "componentType": 5123,
      "count": 72,
      "type": "SCALAR",
      "byteOffset": 59088
    }
  ],
  "bufferViews": [
    {
      "buffer": 0,
      "byteLength": 61300
    },
    {
      "buffer": 0,
      "byteOffset": 61300,
      "byteLength": 2032
    },
    {
      "buffer": 0,
      "byteOffset": 63336,
      "byteLength": 26820,
      "target": 34962,
      "byteStride": 12
    },
    {
      "buffer": 0,
      "byteOffset": 90156,
      "byteLength": 26820,
      "target": 34962,
      "byteStride": 12
    },
    {
      "buffer": 0,
      "byteOffset": 116976,
      "byteLength": 353448,
      "target": 34962,
      "byteStride": 12
    },
    {
      "buffer": 0,
      "byteOffset": 470424,
      "byteLength": 353448,
      "target": 34962,
      "byteStride": 12
    },
    {
      "buffer": 0,
      "byteOffset": 823872,
      "byteLength": 235632,
      "target": 34962,
      "byteStride": 8
    },
    {
      "buffer": 0,
      "byteOffset": 1059504,
      "byteLength": 22824,
      "target": 34963
    },
    {
      "buffer": 0,
      "byteOffset": 1082328,
      "byteLength": 59232,
      "target": 34963
    }
  ],
  "buffers": [
    {
      "uri": "data:application/octet-stream;base64,",
      "byteLength": 1141560
    }
  ]
}