{
  "asset": {
    "version": "2.0",
    "generator": "Sketchup glTF Exporter v1.2.6 by Centaur"
  },
  "scene": 0,
  "scenes": [
    {
      "nodes": [
        0
      ]
    }
  ],
  "samplers": [
    {
    }
  ],
  "nodes": [
    {
      "name": "root",
      "children": [
        1
      ]
    },
    {
      "name": "Group",
      "mesh": 0
    }
  ],
  "materials": [
    {
      "pbrMetallicRoughness": {
        "baseColorFactor": [
          0.2195,
          0.2195,
          0.2195,
          1.0
        ],
        "metallicFactor": 0.1,
        "roughnessFactor": 0.9
      },
      "name": "0133_Gray"
    },
    {
      "pbrMetallicRoughness": {
        "baseColorFactor": [
          0.0127,
          0.0127,
          0.0127,
          1.0
        ],
        "metallicFactor": 0.1,
        "roughnessFactor": 0.9
      },
      "name": "0136_Charcoal"
    },
    {
      "pbrMetallicRoughness": {
        "baseColorFactor": [
          0.2195,
          0.2195,
          0.2195,
          0.5
        ],
        "metallicFactor": 0.1,
        "roughnessFactor": 0.9
      },
      "name": "[Translucent Glass Gray]1",
      "doubleSided": true,
      "alphaMode": "BLEND"
    },
    {
      "pbrMetallicRoughness": {
        "baseColorTexture": {
          "index": 0
        },
        "metallicFactor": 0.1,
        "roughnessFactor": 0.9
      },
      "name": "Translucent Glass Gold",
      "doubleSided": true,
      "alphaMode": "BLEND"
    }
  ],
  "images": [
    {
      "bufferView": 0,
      "mimeType": "image/jpeg"
    }
  ],
  "textures": [
    {
      "source": 0,
      "sampler": 0
    }
  ],
  "meshes": [
    {
      "primitives": [
        {
          "attributes": {
            "POSITION": 0,
            "NORMAL": 1
          },
          "indices": 5,
          "mode": 4,
          "material": 0
        },
        {
          "attributes": {
            "POSITION": 0,
            "NORMAL": 1
          },
          "indices": 6,
          "mode": 4,
          "material": 1
        },
        {
          "attributes": {
            "POSITION": 0,
            "NORMAL": 1
          },
          "indices": 7,
          "mode": 4,
          "material": 2
        },
        {
          "attributes": {
            "POSITION": 2,
            "NORMAL": 3,
            "TEXCOORD_0": 4
          },
          "indices": 8,
          "mode": 4,
          "material": 3
        }
      ]
    }
  ],
  "accessors": [
    {
      "bufferView": 1,
      "componentType": 5126,
      "count": 4714,
      "type": "VEC3",
      "min": [
        -0.2374391958162767,
        0.00031844515129049103,
        -3.1602294366589105
      ],
      "max": [
        0.16439584064964485,
        0.010678445151290355,
        3.329649133291818
      ]
    },
    {
      "bufferView": 2,
      "componentType": 5126,
      "count": 4714,
      "type": "VEC3",
      "min": [
        -1.0,
        -1.0,
        -1.0
      ],
      "max": [
        1.0,
        1.0,
        1.0
      ]
    },
    {
      "bufferView": 3,
      "componentType": 5126,
      "count": 302,
      "type": "VEC3",
      "min": [
        -0.10096603065039673,
        0.0005384451512904306,
        -2.9417000677159786
      ],
      "max": [
        -0.09456837070321257,
        0.0012934451512904511,
        -2.776024036694109
      ]
    },
    {
      "bufferView": 4,
      "componentType": 5126,
      "count": 302,
      "type": "VEC3",
      "min": [
        -0.9999789792714798,
        -1.0,
        -1.0
      ],
      "max": [
        0.9999789792714799,
        5.267838178243401e-15,
        1.0
      ]
    },
    {
      "bufferView": 5,
      "componentType": 5126,
      "count": 302,
      "type": "VEC2",
      "min": [
        -3.1854167944454423,
        -6.143685414971978
      ],
      "max": [
        2.2760182359709185,
        3.2760182359709185
      ]
    },
    {
      "bufferView": 6,
      "componentType": 5123,
      "count": 10221,
      "type": "SCALAR"
    },
    {
      "bufferView": 6,
      "componentType": 5123,
      "count": 10134,
      "type": "SCALAR",
      "byteOffset": 20442
    },
    {
      "bufferView": 6,
      "componentType": 5123,
      "count": 186,
      "type": "SCALAR",
      "byteOffset": 40710
    },
    {
      "bufferView": 7,
      "componentType": 5123,
      "count": 456,
      "type": "SCALAR"
    }
  ],
  "bufferViews": [
    {
      "buffer": 0,
      "byteLength": 1347
    },
    {
      "buffer": 0,
      "byteOffset": 1356,
      "byteLength": 56568,
      "target": 34962,
      "byteStride": 12
    },
    {
      "buffer": 0,
      "byteOffset": 57924,
      "byteLength": 56568,
      "target": 34962,
      "byteStride": 12
    },
    {
      "buffer": 0,
      "byteOffset": 114492,
      "byteLength": 3624,
      "target": 34962,
      "byteStride": 12
    },
    {
      "buffer": 0,
      "byteOffset": 118116,
      "byteLength": 3624,
      "target": 34962,
      "byteStride": 12
    },
    {
      "buffer": 0,
      "byteOffset": 121744,
      "byteLength": 2416,
      "target": 34962,
      "byteStride": 8
    },
    {
      "buffer": 0,
      "byteOffset": 124160,
      "byteLength": 41082,
      "target": 34963
    },
    {
      "buffer": 0,
      "byteOffset": 165242,
      "byteLength": 912,
      "target": 34963
    }
  ],
  "buffers": [
    {
      "uri": "data:application/octet-stream;base64,",
      "byteLength": 166154
    }
  ]
}