{
  "asset": {
    "version": "2.0",
    "generator": "Sketchup glTF Exporter v1.2.6 by Centaur"
  },
  "scene": 0,
  "scenes": [
    {
      "nodes": [
        0
      ]
    }
  ],
  "samplers": [
    {
    }
  ],
  "nodes": [
    {
      "name": "root",
      "children": [
        1
      ]
    },
    {
      "name": "Component",
      "children": [
        2
      ]
    },
    {
      "name": "VIFS01",
      "mesh": 0
    }
  ],
  "materials": [
    {
      "pbrMetallicRoughness": {
        "baseColorFactor": [
          0.8751,
          0.8751,
          0.8751,
          1.0
        ],
        "metallicFactor": 0.1,
        "roughnessFactor": 0.9
      },
      "name": "White Plastic1"
    }
  ],
  "meshes": [
    {
      "primitives": [
        {
          "attributes": {
            "POSITION": 0,
            "NORMAL": 1
          },
          "indices": 2,
          "mode": 4,
          "material": 0
        }
      ]
    }
  ],
  "accessors": [
    {
      "bufferView": 0,
      "componentType": 5126,
      "count": 4706,
      "type": "VEC3",
      "min": [
        -2.0761214313066114,
        -0.01785317686979806,
        -1.8337572479162645
      ],
      "max": [
        2.063870354658354,
        0.5469251549249405,
        2.158167480935054
      ]
    },
    {
      "bufferView": 1,
      "componentType": 5126,
      "count": 4706,
      "type": "VEC3",
      "min": [
        -1.0,
        -0.9998503926343777,
        -0.9991647658382468
      ],
      "max": [
        1.0,
        0.9996163750463231,
        0.9999488023873334
      ]
    },
    {
      "bufferView": 2,
      "componentType": 5123,
      "count": 13785,
      "type": "SCALAR"
    }
  ],
  "bufferViews": [
    {
      "buffer": 0,
      "byteLength": 56472,
      "target": 34962,
      "byteStride": 12
    },
    {
      "buffer": 0,
      "byteOffset": 56472,
      "byteLength": 56472,
      "target": 34962,
      "byteStride": 12
    },
    {
      "buffer": 0,
      "byteOffset": 112944,
      "byteLength": 27570,
      "target": 34963
    }
  ],
  "buffers": [
    {
      "uri": "data:application/octet-stream;base64,",
      "byteLength": 140514
    }
  ]
}