{
  "asset": {
    "version": "2.0",
    "generator": "Sketchup glTF Exporter v1.2.6 by Centaur"
  },
  "scene": 0,
  "scenes": [
    {
      "nodes": [
        0
      ]
    }
  ],
  "samplers": [
    {
    }
  ],
  "nodes": [
    {
      "name": "root",
      "children": [
        1,
        3,
        4,
        5,
        6
      ],
      "mesh": 5
    },
    {
      "name": "Component",
      "children": [
        2
      ]
    },
    {
      "name": "skp8EF0",
      "mesh": 0
    },
    {
      "name": "willx.org#1",
      "mesh": 1
    },
    {
      "name": "William X.#1",
      "mesh": 2
    },
    {
      "name": "willx.org/ar",
      "mesh": 3
    },
    {
      "name": "UT Austin",
      "mesh": 4
    }
  ],
  "materials": [
    {
      "pbrMetallicRoughness": {
        "baseColorTexture": {
          "index": 0
        },
        "metallicFactor": 0.1,
        "roughnessFactor": 0.9
      },
      "name": "<auto>"
    },
    {
      "pbrMetallicRoughness": {
        "baseColorTexture": {
          "index": 1
        },
        "metallicFactor": 0.1,
        "roughnessFactor": 0.9
      },
      "name": "<auto>1"
    },
    {
      "pbrMetallicRoughness": {
        "baseColorTexture": {
          "index": 2
        },
        "metallicFactor": 0.1,
        "roughnessFactor": 0.9
      },
      "name": "<auto>2"
    },
    {
      "pbrMetallicRoughness": {
        "baseColorTexture": {
          "index": 3
        },
        "metallicFactor": 0.1,
        "roughnessFactor": 0.9
      },
      "name": "<auto>3"
    },
    {
      "pbrMetallicRoughness": {
        "baseColorTexture": {
          "index": 4
        },
        "metallicFactor": 0.1,
        "roughnessFactor": 0.9
      },
      "name": "<auto>4"
    },
    {
      "pbrMetallicRoughness": {
        "baseColorFactor": [
          0.5924,
          0.0004,
          0.017,
          1.0
        ],
        "metallicFactor": 0.1,
        "roughnessFactor": 0.9
      },
      "name": "Material6"
    },
    {
      "pbrMetallicRoughness": {
        "baseColorFactor": [
          0.1542,
          1.0,
          0.0066,
          1.0
        ],
        "metallicFactor": 0.1,
        "roughnessFactor": 0.9
      },
      "name": "Material9"
    },
    {
      "pbrMetallicRoughness": {
        "baseColorFactor": [
          0.0037,
          0.3838,
          0.6055,
          1.0
        ],
        "metallicFactor": 0.1,
        "roughnessFactor": 0.9
      },
      "name": "Material8"
    },
    {
      "pbrMetallicRoughness": {
        "baseColorFactor": [
          0.9574,
          1.0,
          0.9914,
          0.7488
        ],
        "metallicFactor": 0.1,
        "roughnessFactor": 0.9
      },
      "name": "Material16",
      "doubleSided": true,
      "alphaMode": "BLEND"
    },
    {
      "pbrMetallicRoughness": {
        "baseColorFactor": [
          0.9743,
          0.2888,
          0.0014,
          1.0
        ],
        "metallicFactor": 0.1,
        "roughnessFactor": 0.9
      },
      "name": "Material10"
    }
  ],
  "images": [
    {
      "bufferView": 0,
      "mimeType": "image/jpeg"
    },
    {
      "bufferView": 1,
      "mimeType": "image/jpeg"
    },
    {
      "bufferView": 2,
      "mimeType": "image/jpeg"
    },
    {
      "bufferView": 3,
      "mimeType": "image/jpeg"
    },
    {
      "bufferView": 4,
      "mimeType": "image/jpeg"
    }
  ],
  "textures": [
    {
      "source": 0,
      "sampler": 0
    },
    {
      "source": 1,
      "sampler": 0
    },
    {
      "source": 2,
      "sampler": 0
    },
    {
      "source": 3,
      "sampler": 0
    },
    {
      "source": 4,
      "sampler": 0
    }
  ],
  "meshes": [
    {
      "primitives": [
        {
          "attributes": {
            "POSITION": 2,
            "NORMAL": 3,
            "TEXCOORD_0": 4
          },
          "indices": 5,
          "mode": 4,
          "material": 0
        },
        {
          "attributes": {
            "POSITION": 2,
            "NORMAL": 3,
            "TEXCOORD_0": 4
          },
          "indices": 6,
          "mode": 4,
          "material": 1
        },
        {
          "attributes": {
            "POSITION": 2,
            "NORMAL": 3,
            "TEXCOORD_0": 4
          },
          "indices": 7,
          "mode": 4,
          "material": 2
        },
        {
          "attributes": {
            "POSITION": 2,
            "NORMAL": 3,
            "TEXCOORD_0": 4
          },
          "indices": 8,
          "mode": 4,
          "material": 3
        },
        {
          "attributes": {
            "POSITION": 2,
            "NORMAL": 3,
            "TEXCOORD_0": 4
          },
          "indices": 9,
          "mode": 4,
          "material": 4
        }
      ]
    },
    {
      "primitives": [
        {
          "attributes": {
            "POSITION": 0,
            "NORMAL": 1
          },
          "indices": 10,
          "mode": 4,
          "material": 5
        }
      ]
    },
    {
      "primitives": [
        {
          "attributes": {
            "POSITION": 0,
            "NORMAL": 1
          },
          "indices": 11,
          "mode": 4,
          "material": 6
        }
      ]
    },
    {
      "primitives": [
        {
          "attributes": {
            "POSITION": 0,
            "NORMAL": 1
          },
          "indices": 12,
          "mode": 4,
          "material": 7
        }
      ]
    },
    {
      "primitives": [
        {
          "attributes": {
            "POSITION": 0,
            "NORMAL": 1
          },
          "indices": 13,
          "mode": 4,
          "material": 9
        }
      ]
    },
    {
      "primitives": [
        {
          "attributes": {
            "POSITION": 0,
            "NORMAL": 1
          },
          "indices": 14,
          "mode": 4,
          "material": 8
        }
      ]
    }
  ],
  "accessors": [
    {
      "bufferView": 5,
      "componentType": 5126,
      "count": 3642,
      "type": "VEC3",
      "min": [
        -0.32050859409059623,
        -0.08890000000000023,
        -0.5179917259059226
      ],
      "max": [
        0.33274765590940625,
        0.1127125000000001,
        0.5496020240940772
      ]
    },
    {
      "bufferView": 6,
      "componentType": 5126,
      "count": 3642,
      "type": "VEC3",
      "min": [
        -1.0,
        -1.0,
        -1.0
      ],
      "max": [
        1.0,
        1.0,
        1.0
      ]
    },
    {
      "bufferView": 7,
      "componentType": 5126,
      "count": 324,
      "type": "VEC3",
      "min": [
        -0.16421484484453344,
        0.008458000000000469,
        -0.3575162306709979
      ],
      "max": [
        0.13052471950546662,
        0.9808049376975979,
        0.31390805170400155
      ]
    },
    {
      "bufferView": 8,
      "componentType": 5126,
      "count": 324,
      "type": "VEC3",
      "min": [
        -0.9996087044679379,
        -1.0,
        -0.9937938544749642
      ],
      "max": [
        0.99960869274079,
        1.0,
        0.9937933963611023
      ]
    },
    {
      "bufferView": 9,
      "componentType": 5126,
      "count": 324,
      "type": "VEC2",
      "min": [
        0.002198640000000057,
        0.0024980000000001112
      ],
      "max": [
        0.9860949999999998,
        0.9652716999999996
      ]
    },
    {
      "bufferView": 11,
      "componentType": 5123,
      "count": 144,
      "type": "SCALAR"
    },
    {
      "bufferView": 11,
      "componentType": 5123,
      "count": 132,
      "type": "SCALAR",
      "byteOffset": 288
    },
    {
      "bufferView": 11,
      "componentType": 5123,
      "count": 144,
      "type": "SCALAR",
      "byteOffset": 552
    },
    {
      "bufferView": 11,
      "componentType": 5123,
      "count": 42,
      "type": "SCALAR",
      "byteOffset": 840
    },
    {
      "bufferView": 11,
      "componentType": 5123,
      "count": 18,
      "type": "SCALAR",
      "byteOffset": 924
    },
    {
      "bufferView": 10,
      "componentType": 5123,
      "count": 1992,
      "type": "SCALAR"
    },
    {
      "bufferView": 10,
      "componentType": 5123,
      "count": 1632,
      "type": "SCALAR",
      "byteOffset": 3984
    },
    {
      "bufferView": 10,
      "componentType": 5123,
      "count": 2832,
      "type": "SCALAR",
      "byteOffset": 7248
    },
    {
      "bufferView": 10,
      "componentType": 5123,
      "count": 2196,
      "type": "SCALAR",
      "byteOffset": 12912
    },
    {
      "bufferView": 10,
      "componentType": 5123,
      "count": 36,
      "type": "SCALAR",
      "byteOffset": 17304
    }
  ],
  "bufferViews": [
    {
      "buffer": 0,
      "byteLength": 117060
    },
    {
      "buffer": 0,
      "byteOffset": 117060,
      "byteLength": 81714
    },
    {
      "buffer": 0,
      "byteOffset": 198774,
      "byteLength": 104571
    },
    {
      "buffer": 0,
      "byteOffset": 303345,
      "byteLength": 39299
    },
    {
      "buffer": 0,
      "byteOffset": 342644,
      "byteLength": 24272
    },
    {
      "buffer": 0,
      "byteOffset": 366924,
      "byteLength": 43704,
      "target": 34962,
      "byteStride": 12
    },
    {
      "buffer": 0,
      "byteOffset": 410628,
      "byteLength": 43704,
      "target": 34962,
      "byteStride": 12
    },
    {
      "buffer": 0,
      "byteOffset": 454332,
      "byteLength": 3888,
      "target": 34962,
      "byteStride": 12
    },
    {
      "buffer": 0,
      "byteOffset": 458220,
      "byteLength": 3888,
      "target": 34962,
      "byteStride": 12
    },
    {
      "buffer": 0,
      "byteOffset": 462112,
      "byteLength": 2592,
      "target": 34962,
      "byteStride": 8
    },
    {
      "buffer": 0,
      "byteOffset": 464704,
      "byteLength": 17376,
      "target": 34963
    },
    {
      "buffer": 0,
      "byteOffset": 482080,
      "byteLength": 960,
      "target": 34963
    }
  ],
  "buffers": [
    {
      "uri": "data:application/octet-stream;base64,",
      "byteLength": 483040
    }
  ]
}