{
  "asset": {
    "version": "2.0",
    "generator": "Sketchup glTF Exporter v1.2.6 by Centaur"
  },
  "scene": 0,
  "scenes": [
    {
      "nodes": [
        0
      ]
    }
  ],
  "samplers": [
    {
    }
  ],
  "nodes": [
    {
      "name": "root",
      "children": [
        1
      ]
    },
    {
      "name": "Component",
      "children": [
        2
      ]
    },
    {
      "name": "VIFS01",
      "mesh": 0
    }
  ],
  "materials": [
    {
      "pbrMetallicRoughness": {
        "baseColorFactor": [
          0.8751,
          0.8751,
          0.8751,
          1.0
        ],
        "metallicFactor": 0.1,
        "roughnessFactor": 0.9
      },
      "name": "White Plastic1"
    }
  ],
  "meshes": [
    {
      "primitives": [
        {
          "attributes": {
            "POSITION": 0,
            "NORMAL": 1
          },
          "indices": 2,
          "mode": 4,
          "material": 0
        }
      ]
    }
  ],
  "accessors": [
    {
      "bufferView": 0,
      "componentType": 5126,
      "count": 205,
      "type": "VEC3",
      "min": [
        -0.23216581432342556,
        -0.11675496521949766,
        -0.07022260322570782
      ],
      "max": [
        0.2106202302169799,
        0.12782801484316586,
        0.09092546260833748
      ]
    },
    {
      "bufferView": 1,
      "componentType": 5126,
      "count": 205,
      "type": "VEC3",
      "min": [
        -0.9976979987041382,
        -0.9922212181684567,
        -0.9880927508536111
      ],
      "max": [
        0.9966640407568251,
        0.9911689128623883,
        0.9972060307997915
      ]
    },
    {
      "bufferView": 2,
      "componentType": 5121,
      "count": 558,
      "type": "SCALAR"
    }
  ],
  "bufferViews": [
    {
      "buffer": 0,
      "byteLength": 2460,
      "target": 34962,
      "byteStride": 12
    },
    {
      "buffer": 0,
      "byteOffset": 2460,
      "byteLength": 2460,
      "target": 34962,
      "byteStride": 12
    },
    {
      "buffer": 0,
      "byteOffset": 4920,
      "byteLength": 558,
      "target": 34963
    }
  ],
  "buffers": [
    {
      "uri": "data:application/octet-stream;base64,",
      "byteLength": 5478
    }
  ]
}