{
  "asset": {
    "version": "2.0",
    "generator": "Sketchup glTF Exporter v1.2.6 by Centaur"
  },
  "scene": 0,
  "scenes": [
    {
      "nodes": [
        0
      ]
    }
  ],
  "samplers": [
    {
    }
  ],
  "nodes": [
    {
      "name": "root",
      "mesh": 0
    }
  ],
  "materials": [
    {
      "pbrMetallicRoughness": {
        "baseColorFactor": [
          0.8751,
          0.8751,
          0.8751,
          1.0
        ],
        "metallicFactor": 0.1,
        "roughnessFactor": 0.9
      },
      "name": "White Plastic1"
    }
  ],
  "meshes": [
    {
      "primitives": [
        {
          "attributes": {
            "POSITION": 0,
            "NORMAL": 1
          },
          "indices": 2,
          "mode": 4,
          "material": 0
        }
      ]
    }
  ],
  "accessors": [
    {
      "bufferView": 0,
      "componentType": 5126,
      "count": 589,
      "type": "VEC3",
      "min": [
        -0.308858349822771,
        0.719384345384192,
        -0.3474650746641583
      ],
      "max": [
        0.29661320667861746,
        1.0080145129686113,
        0.48055103916664643
      ]
    },
    {
      "bufferView": 1,
      "componentType": 5126,
      "count": 589,
      "type": "VEC3",
      "min": [
        -1.0,
        -0.9998503926343778,
        -0.9991647658382468
      ],
      "max": [
        1.0,
        0.9991090605292126,
        0.998749640733382
      ]
    },
    {
      "bufferView": 2,
      "componentType": 5123,
      "count": 2208,
      "type": "SCALAR"
    }
  ],
  "bufferViews": [
    {
      "buffer": 0,
      "byteLength": 7068,
      "target": 34962,
      "byteStride": 12
    },
    {
      "buffer": 0,
      "byteOffset": 7068,
      "byteLength": 7068,
      "target": 34962,
      "byteStride": 12
    },
    {
      "buffer": 0,
      "byteOffset": 14136,
      "byteLength": 4416,
      "target": 34963
    }
  ],
  "buffers": [
    {
      "uri": "data:application/octet-stream;base64,",
      "byteLength": 18552
    }
  ]
}