{
  "asset": {
    "version": "2.0",
    "generator": "Sketchup glTF Exporter v1.2.6 by Centaur"
  },
  "scene": 0,
  "scenes": [
    {
      "nodes": [
        0
      ]
    }
  ],
  "samplers": [
    {
    }
  ],
  "nodes": [
    {
      "name": "root",
      "children": [
        1
      ]
    },
    {
      "name": "Component",
      "children": [
        2
      ]
    },
    {
      "name": "VIFS01",
      "mesh": 0
    }
  ],
  "materials": [
    {
      "pbrMetallicRoughness": {
        "baseColorFactor": [
          0.8751,
          0.8751,
          0.8751,
          1.0
        ],
        "metallicFactor": 0.1,
        "roughnessFactor": 0.9
      },
      "name": "White Plastic1"
    }
  ],
  "meshes": [
    {
      "primitives": [
        {
          "attributes": {
            "POSITION": 0,
            "NORMAL": 1
          },
          "indices": 2,
          "mode": 4,
          "material": 0
        }
      ]
    }
  ],
  "accessors": [
    {
      "bufferView": 0,
      "componentType": 5126,
      "count": 563,
      "type": "VEC3",
      "min": [
        -0.30885834982277094,
        -0.10971685569865079,
        -0.6037379470739791
      ],
      "max": [
        0.2966132066786175,
        0.15625761930363766,
        0.16463853916664653
      ]
    },
    {
      "bufferView": 1,
      "componentType": 5126,
      "count": 563,
      "type": "VEC3",
      "min": [
        -1.0,
        -0.9998503926343776,
        -0.9991647658382468
      ],
      "max": [
        1.0,
        0.9991090605292129,
        0.9987496407333821
      ]
    },
    {
      "bufferView": 2,
      "componentType": 5123,
      "count": 2169,
      "type": "SCALAR"
    }
  ],
  "bufferViews": [
    {
      "buffer": 0,
      "byteLength": 6756,
      "target": 34962,
      "byteStride": 12
    },
    {
      "buffer": 0,
      "byteOffset": 6756,
      "byteLength": 6756,
      "target": 34962,
      "byteStride": 12
    },
    {
      "buffer": 0,
      "byteOffset": 13512,
      "byteLength": 4338,
      "target": 34963
    }
  ],
  "buffers": [
    {
      "uri": "data:application/octet-stream;base64,",
      "byteLength": 17850
    }
  ]
}