{
  "asset": {
    "version": "2.0",
    "generator": "Sketchup glTF Exporter v1.2.6 by Centaur"
  },
  "scene": 0,
  "scenes": [
    {
      "nodes": [
        0
      ]
    }
  ],
  "samplers": [
    {
    }
  ],
  "nodes": [
    {
      "name": "root",
      "children": [
        1
      ]
    },
    {
      "name": "Component",
      "children": [
        2
      ]
    },
    {
      "name": "VIFS01",
      "mesh": 0
    }
  ],
  "materials": [
    {
      "pbrMetallicRoughness": {
        "baseColorFactor": [
          0.8751,
          0.8751,
          0.8751,
          1.0
        ],
        "metallicFactor": 0.1,
        "roughnessFactor": 0.9
      },
      "name": "White Plastic1"
    }
  ],
  "meshes": [
    {
      "primitives": [
        {
          "attributes": {
            "POSITION": 0,
            "NORMAL": 1
          },
          "indices": 2,
          "mode": 4,
          "material": 0
        }
      ]
    }
  ],
  "accessors": [
    {
      "bufferView": 0,
      "componentType": 5126,
      "count": 2497,
      "type": "VEC3",
      "min": [
        -0.3455523842847459,
        -0.17339331223433038,
        -0.7138457223425329
      ],
      "max": [
        0.3459004380667096,
        0.30314789394910346,
        0.5826806938829007
      ]
    },
    {
      "bufferView": 1,
      "componentType": 5126,
      "count": 2497,
      "type": "VEC3",
      "min": [
        -1.0,
        -0.9983516175154596,
        -0.9970342040219543
      ],
      "max": [
        1.0,
        0.9999900570608595,
        0.9993343288446302
      ]
    },
    {
      "bufferView": 2,
      "componentType": 5123,
      "count": 5493,
      "type": "SCALAR"
    }
  ],
  "bufferViews": [
    {
      "buffer": 0,
      "byteLength": 29964,
      "target": 34962,
      "byteStride": 12
    },
    {
      "buffer": 0,
      "byteOffset": 29964,
      "byteLength": 29964,
      "target": 34962,
      "byteStride": 12
    },
    {
      "buffer": 0,
      "byteOffset": 59928,
      "byteLength": 10986,
      "target": 34963
    }
  ],
  "buffers": [
    {
      "uri": "data:application/octet-stream;base64,",
      "byteLength": 70914
    }
  ]
}