{
  "asset": {
    "version": "2.0",
    "generator": "Sketchup glTF Exporter v1.2.6 by Centaur"
  },
  "scene": 0,
  "scenes": [
    {
      "nodes": [
        0
      ]
    }
  ],
  "samplers": [
    {
    }
  ],
  "nodes": [
    {
      "name": "root",
      "children": [
        1
      ]
    },
    {
      "name": "Component",
      "children": [
        2
      ]
    },
    {
      "name": "VIFS01",
      "mesh": 0
    }
  ],
  "materials": [
    {
      "pbrMetallicRoughness": {
        "baseColorFactor": [
          0.8751,
          0.8751,
          0.8751,
          1.0
        ],
        "metallicFactor": 0.1,
        "roughnessFactor": 0.9
      },
      "name": "White Plastic1"
    }
  ],
  "meshes": [
    {
      "primitives": [
        {
          "attributes": {
            "POSITION": 0,
            "NORMAL": 1
          },
          "indices": 2,
          "mode": 4,
          "material": 0
        }
      ]
    }
  ],
  "accessors": [
    {
      "bufferView": 0,
      "componentType": 5126,
      "count": 185,
      "type": "VEC3",
      "min": [
        -0.10134875231504475,
        -0.0886685154467817,
        -1.1274605905866628
      ],
      "max": [
        0.16641224366664864,
        0.09284982232704761,
        0.9559074567413323
      ]
    },
    {
      "bufferView": 1,
      "componentType": 5126,
      "count": 185,
      "type": "VEC3",
      "min": [
        -0.9973749729701796,
        -0.9975938533635116,
        -0.986297689920356
      ],
      "max": [
        0.9998304801718252,
        0.9992879710925504,
        0.9874074532991985
      ]
    },
    {
      "bufferView": 2,
      "componentType": 5121,
      "count": 867,
      "type": "SCALAR"
    }
  ],
  "bufferViews": [
    {
      "buffer": 0,
      "byteLength": 2220,
      "target": 34962,
      "byteStride": 12
    },
    {
      "buffer": 0,
      "byteOffset": 2220,
      "byteLength": 2220,
      "target": 34962,
      "byteStride": 12
    },
    {
      "buffer": 0,
      "byteOffset": 4440,
      "byteLength": 867,
      "target": 34963
    }
  ],
  "buffers": [
    {
      "uri": "data:application/octet-stream;base64,",
      "byteLength": 5307
    }
  ]
}