{
  "asset": {
    "version": "2.0",
    "generator": "Sketchup glTF Exporter v1.2.6 by Centaur"
  },
  "scene": 0,
  "scenes": [
    {
      "nodes": [
        0
      ]
    }
  ],
  "samplers": [
    {
    }
  ],
  "nodes": [
    {
      "name": "root",
      "children": [
        1
      ]
    },
    {
      "name": "Component",
      "children": [
        2
      ]
    },
    {
      "name": "VIFS01",
      "mesh": 0
    }
  ],
  "materials": [
    {
      "pbrMetallicRoughness": {
        "baseColorFactor": [
          0.8751,
          0.8751,
          0.8751,
          1.0
        ],
        "metallicFactor": 0.1,
        "roughnessFactor": 0.9
      },
      "name": "White Plastic1"
    }
  ],
  "meshes": [
    {
      "primitives": [
        {
          "attributes": {
            "POSITION": 0,
            "NORMAL": 1
          },
          "indices": 2,
          "mode": 4,
          "material": 0
        }
      ]
    }
  ],
  "accessors": [
    {
      "bufferView": 0,
      "componentType": 5126,
      "count": 223,
      "type": "VEC3",
      "min": [
        -0.7480633656704769,
        -0.13453584272329827,
        -0.0666689268408249
      ],
      "max": [
        0.8776091968214165,
        0.17889263572151717,
        0.2858090738000444
      ]
    },
    {
      "bufferView": 1,
      "componentType": 5126,
      "count": 223,
      "type": "VEC3",
      "min": [
        -0.9821153959295917,
        -0.9987411287643361,
        -0.9925921514620168
      ],
      "max": [
        0.995204957400276,
        0.9991040490705831,
        0.9986209245222119
      ]
    },
    {
      "bufferView": 2,
      "componentType": 5121,
      "count": 942,
      "type": "SCALAR"
    }
  ],
  "bufferViews": [
    {
      "buffer": 0,
      "byteLength": 2676,
      "target": 34962,
      "byteStride": 12
    },
    {
      "buffer": 0,
      "byteOffset": 2676,
      "byteLength": 2676,
      "target": 34962,
      "byteStride": 12
    },
    {
      "buffer": 0,
      "byteOffset": 5352,
      "byteLength": 942,
      "target": 34963
    }
  ],
  "buffers": [
    {
      "uri": "data:application/octet-stream;base64,",
      "byteLength": 6294
    }
  ]
}