{
  "asset": {
    "version": "2.0",
    "generator": "Sketchup glTF Exporter v1.2.6 by Centaur"
  },
  "scene": 0,
  "scenes": [
    {
      "nodes": [
        0
      ]
    }
  ],
  "samplers": [
    {
    }
  ],
  "nodes": [
    {
      "name": "root",
      "mesh": 0
    }
  ],
  "materials": [
    {
      "pbrMetallicRoughness": {
        "baseColorFactor": [
          0.8751,
          0.8751,
          0.8751,
          1.0
        ],
        "metallicFactor": 0.1,
        "roughnessFactor": 0.9
      },
      "name": "White Plastic1"
    }
  ],
  "meshes": [
    {
      "primitives": [
        {
          "attributes": {
            "POSITION": 0,
            "NORMAL": 1
          },
          "indices": 2,
          "mode": 4,
          "material": 0
        }
      ]
    }
  ],
  "accessors": [
    {
      "bufferView": 0,
      "componentType": 5126,
      "count": 200,
      "type": "VEC3",
      "min": [
        -0.06656928485631941,
        -0.07128799453020107,
        -0.14938401645660382
      ],
      "max": [
        0.14184292969942092,
        0.4348652692341803,
        0.02463824901580842
      ]
    },
    {
      "bufferView": 1,
      "componentType": 5126,
      "count": 200,
      "type": "VEC3",
      "min": [
        -0.9994617925131505,
        -0.9594697150858502,
        -0.9739195230149409
      ],
      "max": [
        0.9979633084446007,
        0.9481523498648,
        0.9987533786083161
      ]
    },
    {
      "bufferView": 2,
      "componentType": 5121,
      "count": 594,
      "type": "SCALAR"
    }
  ],
  "bufferViews": [
    {
      "buffer": 0,
      "byteLength": 2400,
      "target": 34962,
      "byteStride": 12
    },
    {
      "buffer": 0,
      "byteOffset": 2400,
      "byteLength": 2400,
      "target": 34962,
      "byteStride": 12
    },
    {
      "buffer": 0,
      "byteOffset": 4800,
      "byteLength": 594,
      "target": 34963
    }
  ],
  "buffers": [
    {
      "uri": "data:application/octet-stream;base64,",
      "byteLength": 5394
    }
  ]
}