{
  "asset": {
    "version": "2.0",
    "generator": "Sketchup glTF Exporter v1.2.6 by Centaur"
  },
  "scene": 0,
  "scenes": [
    {
      "nodes": [
        0
      ]
    }
  ],
  "samplers": [
    {
    }
  ],
  "nodes": [
    {
      "name": "root",
      "mesh": 0
    }
  ],
  "materials": [
    {
      "pbrMetallicRoughness": {
        "baseColorFactor": [
          0.8751,
          0.8751,
          0.8751,
          1.0
        ],
        "metallicFactor": 0.1,
        "roughnessFactor": 0.9
      },
      "name": "White Plastic1"
    }
  ],
  "meshes": [
    {
      "primitives": [
        {
          "attributes": {
            "POSITION": 0,
            "NORMAL": 1
          },
          "indices": 2,
          "mode": 4,
          "material": 0
        }
      ]
    }
  ],
  "accessors": [
    {
      "bufferView": 0,
      "componentType": 5126,
      "count": 335,
      "type": "VEC3",
      "min": [
        -0.17456415210878765,
        -0.2333885971345,
        -0.33395823698645877
      ],
      "max": [
        0.17527256171548447,
        0.1979242790137234,
        0.20762749722582374
      ]
    },
    {
      "bufferView": 1,
      "componentType": 5126,
      "count": 335,
      "type": "VEC3",
      "min": [
        -0.9989406443785963,
        -0.9968719961768318,
        -0.9809289836530215
      ],
      "max": [
        0.998939016714942,
        0.9915873137227355,
        0.9999488023873335
      ]
    },
    {
      "bufferView": 2,
      "componentType": 5123,
      "count": 1230,
      "type": "SCALAR"
    }
  ],
  "bufferViews": [
    {
      "buffer": 0,
      "byteLength": 4020,
      "target": 34962,
      "byteStride": 12
    },
    {
      "buffer": 0,
      "byteOffset": 4020,
      "byteLength": 4020,
      "target": 34962,
      "byteStride": 12
    },
    {
      "buffer": 0,
      "byteOffset": 8040,
      "byteLength": 2460,
      "target": 34963
    }
  ],
  "buffers": [
    {
      "uri": "data:application/octet-stream;base64,",
      "byteLength": 10500
    }
  ]
}